<?xml version="1.0"?>
<svg xmlns="http://www.w3.org/2000/svg" height="512px" viewBox="0 0 464 464.04037" width="512px" class=""><g><path d="m464.015625 232.039062c0 128.132813-103.871094 232-232 232-8.5.003907-16.996094-.476562-25.441406-1.4375-120.167969-13.261718-210.007813-116.578124-206.453125-237.421874 3.554687-120.84375 99.3125-218.703126 220.050781-224.878907 120.738281-6.171875 225.980469 81.410157 241.84375 201.257813 1.351563 10.105468 2.019531 20.289062 2 30.480468zm0 0" fill="#00b6bd" data-original="#00B6BD" class="" style="fill:#BBBBBB" data-old_color="#00B6BD"/><path d="m464.015625 232.039062c0 128.132813-103.871094 232-232 232-8.5.003907-16.996094-.476562-25.441406-1.4375l-102.558594-102.5625 264-248 94 89.519532c1.351563 10.105468 2.019531 20.289062 2 30.480468zm0 0" fill="#009698" data-original="#009698" class="" style="fill:#BBBBBB" data-old_color="#009698"/><path d="m101.910156 362.144531 84.847656-28.28125-56.566406-56.566406zm0 0" fill="#8b5e3c" data-original="#8B5E3C" class="active-path" style="fill:#FFFFFF" data-old_color="#8B5E3C"/><path d="m362.117188 101.9375c-15.621094-15.621094-40.945313-15.621094-56.566407 0l-175.367187 175.367188 56.566406 56.566406 175.359375-175.359375c15.628906-15.617188 15.632813-40.953125.007813-56.574219zm0 0" fill="#a97c50" data-original="#A97C50" class="" style="fill:#000000" data-old_color="#A97C50"/><path d="m282.921875 124.558594 11.316406-11.316406 56.570313 56.566406-11.316406 11.316406zm0 0" fill="#603913" data-original="#603913" class="" style="fill:#FFFFFF" data-old_color="#603913"/></g> </svg>
